<svg version="1.1" xmlns="http://www.w3.org/2000/svg" xmlns:xlink="http://www.w3.org/1999/xlink" width="48" height="48"><defs><linearGradient x1="13.27731" y1="13.27731" x2="58.00415" y2="58.00416" gradientUnits="userSpaceOnUse" id="color-1"><stop offset="0.27" stop-color="#000000" stop-opacity="0.16"></stop><stop offset="1" stop-color="#000000" stop-opacity="0"></stop></linearGradient><filter id="dropshadow-base"><feColorMatrix type="matrix" values="0 0 0 0 0  0 0 0 0 0  0 0 0 0 0  0 0 0 .8 0"></feColorMatrix> <feOffset dx="0" dy="1"></feOffset> <feGaussianBlur stdDeviation="1"></feGaussianBlur> <feComposite in="SourceGraphic"></feComposite></filter><filter id="dropshadow-banner" x="-10%" y="-10%" width="120%" height="130%"><feColorMatrix type="matrix" values="0 0 0 0 0  0 0 0 0 0  0 0 0 0 0  0 0 0 .4 0"></feColorMatrix> <feOffset dx="0" dy="1"></feOffset> <feGaussianBlur stdDeviation="0.5"></feGaussianBlur> <feComposite in="SourceGraphic"></feComposite></filter></defs><g fill="none" fill-rule="nonzero" stroke="none" stroke-width="none" stroke-linecap="butt" stroke-linejoin="miter" stroke-miterlimit="10" stroke-dasharray="" stroke-dashoffset="0" font-family="none" font-weight="none" font-size="none" text-anchor="none" style="mix-blend-mode: normal"><path d="M2,24c0,-12.15026 9.84974,-22 22,-22c12.15026,0 22,9.84974 22,22c0,12.15026 -9.84974,22 -22,22c-12.15026,0 -22,-9.84974 -22,-22z" id="base 1 5" fill="#696969" stroke-width="1"></path><path d="M13.45229,34.54771c-0.10797,-0.10797 -0.17499,-0.2569 -0.17499,-0.42072v-18.01411c0,-0.27402 0.18468,-0.48847 0.43487,-0.57187l6.71359,-2.26368l7.14846,2.50196l6.36808,-2.47218c0.05956,-0.02383 0.11914,-0.02979 0.18467,-0.02979l0,-0.00001c0.16382,0 0.31275,0.06702 0.42072,0.17499l11.43475,11.43475c-0.45383,11.44479 -9.65062,20.64157 -21.09541,21.0954z" fill="url(#color-1)" stroke-width="1"></path><path d="M34.12698,13.27732c-0.06553,0 -0.1251,0.00596 -0.18467,0.02979l-6.36808,2.47217l-7.14846,-2.50196l-6.71359,2.26368c-0.2502,0.0834 -0.43486,0.29785 -0.43486,0.57188v18.01411c0,0.32764 0.26807,0.5957 0.5957,0.5957c0.06553,0 0.1251,-0.00596 0.18467,-0.02979l6.36808,-2.47217l7.14846,2.50196l6.71955,-2.25772c0.2502,-0.08936 0.42891,-0.30381 0.42891,-0.57783v-18.01411c0,-0.32764 -0.26807,-0.5957 -0.5957,-0.5957zM27.57423,32.33986l-7.14846,-2.50792v-14.17181l7.14846,2.50792z" fill="none" stroke-width="0"></path><path d="M34.72268,13.87302v18.01411c0,0.27402 -0.17871,0.48848 -0.42891,0.57783l-6.71955,2.25772l-7.14846,-2.50196l-6.36808,2.47217c-0.05957,0.02383 -0.11914,0.02979 -0.18467,0.02979c-0.32764,0 -0.5957,-0.26807 -0.5957,-0.5957v-18.01411c0,-0.27402 0.18467,-0.48848 0.43486,-0.57188l6.71359,-2.26368l7.14846,2.50196l6.36808,-2.47217c0.05957,-0.02383 0.11914,-0.02979 0.18467,-0.02979c0.32764,0 0.5957,0.26807 0.5957,0.5957zM27.57423,18.16805l-7.14846,-2.50792v14.17181l7.14846,2.50792z" fill="#27d66d" stroke-width="0"></path><path d="M2,24c0,-12.15026 9.84974,-22 22,-22c12.15026,0 22,9.84974 22,22c0,12.15026 -9.84974,22 -22,22c-12.15026,0 -22,-9.84974 -22,-22z" id="base 1 1 1" fill="none" stroke-width="1"></path><g fill="#000000" stroke-width="1" font-family="Roboto, sans-serif" font-weight="normal" font-size="14" text-anchor="start"></g><path d="M16,36v-12h30v12z" id="banner 1" fill="#3d3d40" stroke-width="1" filter="url(#dropshadow-banner)"></path><text x="31" y="33" fill="#ffffff" stroke-width="1" font-family="sans-serif" font-weight="bold" font-size="8" text-anchor="middle">BETA</text><rect x="2" y="2" width="44" height="22" fill="none" stroke-width="1"></rect><path d="M2,24v-22h44v22z" fill="none" stroke-width="1"></path><path d="M2,24v-22h44v22z" fill="none" stroke-width="1"></path><path d="M2,24v-22h44v22z" fill="none" stroke-width="1"></path><path d="M2,24v-22h44v22z" fill="none" stroke-width="1"></path></g></svg>